<?xml version="1.0" encoding="iso-8859-1"?>
<!-- Uploaded to: SVG Repo, www.svgrepo.com, Generator: SVG Repo Mixer Tools -->
<svg fill="#000000" height="800px" width="800px" version="1.1" id="Layer_1" xmlns="http://www.w3.org/2000/svg" xmlns:xlink="http://www.w3.org/1999/xlink" 
	 viewBox="0 0 512.001 512.001" xml:space="preserve">
<g>
	<g>
		<path d="M184.757,208.096c-11.337,0-20.529-9.193-20.529-20.529V30.187h-143.7C9.191,30.187,0,39.379,0,50.716v410.571
			c0,11.336,9.191,20.529,20.529,20.529h301.086c11.337,0,20.529-9.193,20.529-20.529V208.096H184.757z M239.5,386.016H102.643
			c-11.337,0-20.529-9.193-20.529-20.529c0-11.339,9.191-20.529,20.529-20.529H239.5c11.337,0,20.529,9.19,20.529,20.529
			C260.028,376.823,250.837,386.016,239.5,386.016z M239.5,303.901H102.643c-11.337,0-20.529-9.193-20.529-20.529
			c0-11.339,9.191-20.529,20.529-20.529H239.5c11.337,0,20.529,9.19,20.529,20.529C260.028,294.709,250.837,303.901,239.5,303.901z"
			/>
	</g>
</g>
<g>
	<g>
		<polygon points="205.286,42.212 205.286,167.039 330.117,167.039 		"/>
	</g>
</g>
<g>
	<g>
		<path d="M505.988,36.199c-3.85-3.85-9.071-6.013-14.516-6.013h-87.743c-5.446,0-10.667,2.162-14.516,6.013
			c-3.85,3.85-6.012,9.071-6.012,14.516l0.001,118.043v37.615l0.001,211.043c0,5.444,2.162,10.665,6.014,14.514l43.87,43.87
			c4.009,4.01,9.263,6.015,14.515,6.015c5.253,0,10.508-2.005,14.515-6.015l43.87-43.87c3.85-3.85,6.013-9.071,6.013-14.514
			l0.003-366.702C512,45.27,509.838,40.049,505.988,36.199z"/>
	</g>
</g>
</svg>